<svg width="68" height="38" viewBox="0 0 68 38" fill="none" xmlns="http://www.w3.org/2000/svg">
<path d="M10.1903 28.0829V10.7012H32.5378V28.0829H19.9477L15.1214 38.0001V28.1362L10.1903 28.0829Z" fill="#F9F9F9"/>
<path d="M46.9115 17.099L43.6066 23.1773C43.3968 23.6038 42.9246 23.8704 42.505 23.8704C42.0328 23.8704 41.6132 23.6038 41.4033 23.1773L38.0984 17.099V26.8562C38.0984 27.496 37.5738 28.0292 36.9443 28.0292C36.3148 28.0292 35.7902 27.496 35.7902 26.8562V13.2601C35.7902 12.567 36.3673 11.9805 37.0492 11.9805C37.5738 11.9805 37.9935 12.2471 38.2033 12.6736L42.5574 20.5647L46.9115 12.6736C47.1213 12.2471 47.5935 11.9805 48.0656 11.9805C48.7476 11.9805 49.3246 12.567 49.3246 13.2601V26.9095C49.3246 27.5494 48.8 28.0825 48.1181 28.0825C47.4886 28.0825 46.964 27.5494 46.964 26.9095V17.099" fill="#363636"/>
<path d="M53.6787 27.8694C52.8918 27.8694 52.2623 27.2296 52.2623 26.4298V13.6334C52.2623 12.8337 52.8918 12.1938 53.6787 12.1938H56.5639C60.1836 12.1938 62.5967 14.6465 62.5967 18.2721V21.7911C62.5967 25.4167 60.1311 27.8694 56.5639 27.8694H53.6787ZM60.2885 18.2188C60.2885 15.8728 58.9245 14.4332 56.6164 14.4332H54.5705V25.5767H56.6164C58.977 25.5767 60.2885 24.1371 60.2885 21.7911V18.2188Z" fill="#363636"/>
<path d="M65.6918 13.1535C65.6918 12.5136 66.2164 11.9805 66.8459 11.9805C67.4754 11.9805 68 12.5136 68 13.1535V26.9095C68 27.5494 67.4754 28.0825 66.8459 28.0825C66.2164 28.0825 65.6918 27.5494 65.6918 26.9095V13.1535Z" fill="#363636"/>
<path d="M4.57719 10.2745C5.10178 10.4878 5.41653 11.0743 5.2067 11.6075C4.99686 12.1407 4.41981 12.4073 3.89523 12.194L0.695233 10.9677C0.170645 10.7544 -0.144109 10.1679 0.065727 9.63473C0.275563 9.10155 0.85261 8.83496 1.3772 9.04823L4.57719 10.2745Z" fill="#363636"/>
<path d="M8.09193 6.00917C8.45915 6.43572 8.45915 7.12885 8.03948 7.50208C7.6198 7.87531 6.9903 7.82199 6.57063 7.34213L4.3149 4.72954C3.94768 4.30299 3.94768 3.60986 4.36735 3.23663C4.78703 2.8634 5.41653 2.91672 5.8362 3.39658L8.09193 6.00917Z" fill="#363636"/>
<path d="M13.3378 4.19617C13.4952 4.78267 13.1804 5.36917 12.6558 5.47581C12.1313 5.63576 11.5542 5.26254 11.3968 4.72936L10.505 1.37031C10.4001 0.783814 10.7149 0.197315 11.2395 0.0373604C11.764 -0.122594 12.3411 0.250634 12.4985 0.783815L13.3378 4.19617Z" fill="#363636"/>
</svg>
